<svg width="904" height="678" viewBox="0 0 904 678" fill="none" xmlns="http://www.w3.org/2000/svg">
<g clip-path="url(#clip0)">
<path d="M841.893 278.573H0V678H841.893V278.573Z" fill="#6C63FF"/>
<path d="M702.709 440.38H139.184V678H702.709V440.38Z" fill="#F0F0F0"/>
<path d="M702.709 454.88H139.184V457.143H702.709V454.88Z" fill="#3F3D56"/>
<path d="M149.342 452.327C151.58 452.327 153.394 450.513 153.394 448.275C153.394 446.037 151.58 444.222 149.342 444.222C147.104 444.222 145.289 446.037 145.289 448.275C145.289 450.513 147.104 452.327 149.342 452.327Z" fill="#3F3D56"/>
<path d="M163.237 452.327C165.475 452.327 167.289 450.513 167.289 448.275C167.289 446.037 165.475 444.222 163.237 444.222C160.998 444.222 159.184 446.037 159.184 448.275C159.184 450.513 160.998 452.327 163.237 452.327Z" fill="#3F3D56"/>
<path d="M177.131 452.327C179.369 452.327 181.184 450.513 181.184 448.275C181.184 446.037 179.369 444.222 177.131 444.222C174.893 444.222 173.079 446.037 173.079 448.275C173.079 450.513 174.893 452.327 177.131 452.327Z" fill="#3F3D56"/>
<path d="M450.414 561.66L456.413 573.816L469.828 575.764L460.121 585.227L462.412 598.587L450.414 592.279L438.415 598.587L440.706 585.227L430.999 575.764L444.414 573.816L450.414 561.66Z" fill="#6C63FF"/>
<path d="M504.391 561.66L510.39 573.816L523.805 575.764L514.097 585.227L516.389 598.587L504.391 592.279L492.392 598.587L494.683 585.227L484.976 575.764L498.391 573.816L504.391 561.66Z" fill="#6C63FF"/>
<path d="M558.367 561.66L564.367 573.816L577.782 575.764L568.074 585.227L570.366 598.587L558.367 592.279L546.369 598.587L548.66 585.227L538.953 575.764L552.368 573.816L558.367 561.66Z" fill="#6C63FF"/>
<path d="M612.344 561.66L618.344 573.816L631.759 575.764L622.051 585.227L624.343 598.587L612.344 592.279L600.346 598.587L602.637 585.227L592.93 575.764L606.345 573.816L612.344 561.66Z" fill="#6C63FF"/>
<path d="M666.321 561.66L672.321 573.816L685.736 575.764L676.028 585.227L678.32 598.587L666.321 592.279L654.322 598.587L656.614 585.227L646.907 575.764L660.322 573.816L666.321 561.66Z" fill="#6C63FF"/>
<path d="M397.183 510.535H177.658V649.712H397.183V510.535Z" fill="#3F3D56"/>
<path opacity="0.1" d="M222.423 278.572L0 431.26V353.038L108.473 278.572H222.423Z" fill="black"/>
<path opacity="0.1" d="M475.387 278.572L0 604.915V526.682L361.437 278.572H475.387Z" fill="black"/>
<path d="M128.597 392.451L113.36 376.116L129.696 360.88L144.932 377.214L128.597 392.451ZM115.789 376.2L128.681 390.022L142.504 377.13L129.611 363.308L115.789 376.2Z" fill="#F0F0F0"/>
<path d="M631.42 382.176H609.081V359.839H631.42V382.176ZM610.8 380.458H629.702V361.557H610.8V380.458Z" fill="#3F3D56"/>
<path d="M769.823 572.808C776.122 572.808 781.228 567.702 781.228 561.404C781.228 555.105 776.122 550 769.823 550C763.524 550 758.418 555.105 758.418 561.404C758.418 567.702 763.524 572.808 769.823 572.808Z" fill="#F0F0F0"/>
<path d="M769.823 594.349C763.307 594.349 756.937 592.417 751.519 588.797C746.101 585.177 741.878 580.031 739.384 574.011C736.89 567.991 736.238 561.367 737.509 554.976C738.78 548.586 741.918 542.715 746.526 538.108C751.134 533.5 757.004 530.363 763.395 529.091C769.787 527.82 776.411 528.473 782.431 530.966C788.452 533.46 793.597 537.682 797.218 543.1C800.838 548.518 802.77 554.888 802.77 561.404C802.76 570.138 799.286 578.513 793.109 584.689C786.933 590.865 778.558 594.339 769.823 594.349ZM769.823 530.993C763.808 530.993 757.928 532.776 752.927 536.118C747.925 539.459 744.027 544.209 741.726 549.766C739.424 555.323 738.821 561.438 739.995 567.337C741.168 573.236 744.065 578.655 748.318 582.908C752.571 587.161 757.99 590.057 763.89 591.231C769.789 592.404 775.904 591.802 781.462 589.5C787.019 587.198 791.769 583.3 795.11 578.299C798.452 573.298 800.236 567.418 800.236 561.404C800.227 553.341 797.019 545.611 791.318 539.91C785.616 534.209 777.886 531.002 769.823 530.993Z" fill="#2F2E41"/>
<path d="M259.131 619.202C264.37 638.566 282.313 650.559 282.313 650.559C282.313 650.559 291.764 631.156 286.525 611.792C281.286 592.427 263.343 580.435 263.343 580.435C263.343 580.435 253.892 599.838 259.131 619.202Z" fill="white"/>
<path d="M266.829 615.04C281.204 629.033 282.96 650.543 282.96 650.543C282.96 650.543 261.409 649.367 247.034 635.374C232.659 621.381 230.903 599.871 230.903 599.871C230.903 599.871 252.454 601.047 266.829 615.04Z" fill="#6C63FF"/>
<path d="M306.788 619.202C301.55 638.566 283.606 650.559 283.606 650.559C283.606 650.559 274.156 631.156 279.395 611.792C284.633 592.427 302.577 580.435 302.577 580.435C302.577 580.435 312.027 599.838 306.788 619.202Z" fill="white"/>
<path d="M299.091 615.04C284.716 629.033 282.96 650.543 282.96 650.543C282.96 650.543 304.511 649.367 318.886 635.374C333.261 621.381 335.016 599.871 335.016 599.871C335.016 599.871 313.466 601.047 299.091 615.04Z" fill="#6C63FF"/>
<path d="M730.618 21.5638H641.771V125.07H730.618V21.5638Z" fill="#F2F2F2"/>
<path d="M700.411 279.768L699.177 278.563C704.854 272.125 709.158 264.597 711.824 256.438C716.021 243.807 718.072 223.86 704.002 200.559C689.607 176.718 688.959 157.354 690.95 145.308C693.117 132.2 698.646 124.853 698.88 124.546L700.251 125.594C700.196 125.666 694.715 132.974 692.636 145.691C690.716 157.431 691.386 176.326 705.479 199.667C719.908 223.564 717.77 244.065 713.437 257.055C708.741 271.13 700.749 279.422 700.411 279.768Z" fill="#3F3D56"/>
<path d="M765.122 125.933H640.908V1.7251H765.122V125.933ZM642.634 124.208H763.397V3.45021H642.634V124.208Z" fill="#3F3D56"/>
<path d="M742.695 37.9524H666.786V39.6775H742.695V37.9524Z" fill="#3F3D56"/>
<path d="M742.695 56.9286H666.786V58.6537H742.695V56.9286Z" fill="#3F3D56"/>
<path d="M742.695 75.9048H666.786V77.6299H742.695V75.9048Z" fill="#3F3D56"/>
<path d="M869.496 96.606H780.649V200.113H869.496V96.606Z" fill="#F2F2F2"/>
<path d="M839.289 354.81L838.054 353.605C843.732 347.168 848.036 339.639 850.702 331.48C854.899 318.849 856.949 298.902 842.88 275.601C828.485 251.76 827.837 232.396 829.828 220.35C831.995 207.242 837.523 199.895 837.757 199.589L839.128 200.636C839.073 200.708 833.593 208.016 831.514 220.733C829.594 232.473 830.264 251.368 844.357 274.709C858.786 298.606 856.648 319.107 852.315 332.097C847.619 346.172 839.627 354.464 839.289 354.81Z" fill="#3F3D56"/>
<path d="M904 200.975H779.786V76.7673H904V200.975ZM781.512 199.25H902.275V78.4924H781.512V199.25Z" fill="#3F3D56"/>
<path d="M881.573 112.995H805.664V114.72H881.573V112.995Z" fill="#3F3D56"/>
<path d="M881.573 131.971H805.664V133.696H881.573V131.971Z" fill="#3F3D56"/>
<path d="M881.573 150.947H805.664V152.672H881.573V150.947Z" fill="#3F3D56"/>
<path d="M208.748 19.8387H119.901V123.345H208.748V19.8387Z" fill="#F2F2F2"/>
<path d="M178.541 278.043L177.306 276.838C182.984 270.4 187.288 262.871 189.954 254.712C194.151 242.082 196.201 222.135 182.132 198.833C167.737 174.993 167.089 155.629 169.08 143.582C171.247 130.475 176.775 123.127 177.009 122.821L178.38 123.869C178.325 123.941 172.845 131.249 170.766 143.966C168.846 155.706 169.516 174.601 183.609 197.941C198.038 221.839 195.9 242.34 191.567 255.33C186.871 269.405 178.879 277.697 178.541 278.043Z" fill="#3F3D56"/>
<path d="M243.252 124.208H119.038V0H243.252V124.208ZM120.763 122.483H241.527V1.72511H120.763V122.483Z" fill="#3F3D56"/>
<path d="M220.824 36.2273H144.916V37.9524H220.824V36.2273Z" fill="#3F3D56"/>
<path d="M220.824 55.2035H144.916V56.9286H220.824V55.2035Z" fill="#3F3D56"/>
<path d="M220.824 74.1797H144.916V75.9048H220.824V74.1797Z" fill="#3F3D56"/>
<path d="M404.955 315.832L410.954 327.988L424.369 329.936L414.662 339.399L416.954 352.759L404.955 346.451L392.955 352.759L395.247 339.399L385.54 329.936L398.956 327.988L404.955 315.832Z" fill="#F0F0F0"/>
<path d="M426.642 41.757H426.642C447.372 41.757 464.177 60.4059 464.177 83.4104V112.638H455.187L449.983 101.809L451.284 112.638H393.503L388.772 102.793L389.955 112.638H383.449V89.689C383.449 63.2169 402.787 41.757 426.642 41.757Z" fill="#2F2E41"/>
<path d="M469.65 232.714L492.696 242.508L572.781 307.61C575.726 311.228 577.531 315.64 577.967 320.285C578.543 327.774 602.741 366.951 594.099 372.136C585.457 377.321 554.345 392.876 552.616 382.506C550.888 372.136 541.669 327.774 541.669 327.774L464.465 258.639L469.65 232.714Z" fill="#2F2E41"/>
<path d="M560.106 373.864L569.901 402.67C569.901 402.67 559.53 413.617 564.715 422.834V454.521H572.781L575.086 437.814C575.086 437.814 584.273 454.31 588.914 454.521C598.641 454.964 617.905 458.424 618.481 453.239C619.057 448.054 603.893 442.999 603.893 442.999L587.761 398.637L580.847 371.56L560.106 373.864Z" fill="#2F2E41"/>
<path d="M409.731 225.224C409.731 225.224 404.545 275.923 419.525 285.141C434.505 294.359 500.763 323.741 500.763 323.741C500.763 323.741 472.531 350.243 478.293 356.58C484.054 362.918 509.981 380.201 513.438 376.745C516.895 373.288 555.497 331.807 550.888 318.556C546.279 305.305 482.326 262.096 482.326 262.096L474.836 235.018L472.531 213.126L448.333 197.57L409.731 225.224Z" fill="#2F2E41"/>
<path d="M436.127 107.184C449.392 107.184 460.146 96.4314 460.146 83.1668C460.146 69.9023 449.392 59.1492 436.127 59.1492C422.862 59.1492 412.108 69.9023 412.108 83.1668C412.108 96.4314 422.862 107.184 436.127 107.184Z" fill="#FFB9B9"/>
<path d="M417.509 93.0039C417.509 93.0039 418.661 114.897 400.8 121.81C382.94 128.724 445.164 173.661 445.164 173.661V123.538C445.164 123.538 437.098 114.897 445.164 101.646L417.509 93.0039Z" fill="#FFB9B9"/>
<path d="M379.195 195.842L383.804 218.311L397.631 295.511C397.631 295.511 386.108 328.35 401.665 327.774C417.221 327.198 409.731 292.054 409.731 292.054L401.665 228.105V203.332L379.195 195.842Z" fill="#FFB9B9"/>
<path d="M478.293 184.896L483.478 205.06L507.1 262.096C507.1 262.096 523.232 289.174 509.981 288.598C496.729 288.022 496.729 262.096 496.729 262.096L469.65 216.006V190.081L478.293 184.896Z" fill="#FFB9B9"/>
<path d="M482.326 353.124L463.313 370.983C463.313 370.983 450.061 368.103 444.876 383.658C439.691 399.213 436.234 409.008 436.234 409.008L443.147 413.04L451.79 400.942C451.79 400.942 456.975 422.834 462.16 424.563C467.346 426.291 493.273 437.814 490.968 424.563L478.293 406.127C478.293 406.127 476.564 385.386 481.75 383.658C486.935 381.93 500.763 364.646 500.763 364.646L482.326 353.124Z" fill="#2F2E41"/>
<path d="M408.817 243.084C408.817 243.084 462.975 223.496 466.432 225.224C469.006 226.361 471.746 227.072 474.548 227.33L474.498 219.463C474.498 219.463 456.638 213.126 446.843 217.158C437.049 221.191 407.089 239.051 407.089 239.051L408.817 243.084Z" fill="#3F3D56"/>
<path d="M441.707 162.139C441.707 162.139 426.151 144.279 421.542 133.333C418.626 126.696 413.273 121.433 406.588 118.629C406.588 118.629 371.993 126.419 372.569 140.246C373.145 154.073 394.463 175.39 394.463 175.39C394.463 175.39 391.582 252.014 407.138 250.862C410.493 246.857 412.861 242.121 414.052 237.035C415.78 228.969 469.362 220.327 469.362 220.327C469.362 220.327 473.971 228.393 474.548 224.936C475.124 221.479 469.938 136.789 469.938 136.789L442.464 118.629L441.707 162.139Z" fill="#D0CDE1"/>
<path d="M377.007 134.68L376.621 134.897C375.39 135.588 374.365 136.594 373.652 137.813C372.938 139.031 372.562 140.418 372.562 141.83L372.568 184.585C372.564 185.748 372.307 186.895 371.815 187.948C371.323 189.001 370.607 189.934 369.718 190.683C367.499 192.57 365.441 195.29 369.688 196.706C376.602 199.011 403.681 210.533 404.257 206.5C404.833 202.467 405.986 197.858 404.257 197.858C402.904 197.858 394.842 156.546 388.363 138.882C387.968 137.8 387.342 136.818 386.529 136.002C385.716 135.186 384.736 134.557 383.656 134.157C382.576 133.758 381.422 133.598 380.274 133.688C379.126 133.778 378.011 134.117 377.007 134.68V134.68Z" fill="#D0CDE1"/>
<path d="M462.16 134.773L470.227 137.077L479.445 176.83C479.445 176.83 490.392 179.134 486.935 183.167C483.478 187.2 469.074 197.57 469.074 197.57L462.16 134.773Z" fill="#D0CDE1"/>
<path d="M415.972 53.2311C417.778 50.8058 420.119 48.8292 422.812 47.4547C425.506 46.0801 428.48 45.3447 431.504 45.3053H432.241C446.449 45.3053 457.967 58.1616 457.967 74.0206V74.0207H453.206L452.437 68.1686L451.31 74.0207H423.074L420.708 69.0697L421.3 74.0207H415.745C413.153 86.8931 416.877 99.7655 426.918 112.638H417.456L412.724 102.736L413.907 112.638H395.869L392.321 89.8636C392.321 72.8077 402.231 58.3447 415.972 53.2311Z" fill="#2F2E41"/>
</g>
<defs>
<clipPath id="clip0">
<rect width="904" height="678" fill="white"/>
</clipPath>
</defs>
</svg>
