<svg width="385" height="205" viewBox="0 0 385 205" fill="none" xmlns="http://www.w3.org/2000/svg">
<g clip-path="url(#clip0)">
<path opacity="0.1" d="M16.3251 28.0414C16.9489 32.0125 18.5429 35.8481 18.5568 39.8644C18.6087 52.9879 2.74106 61.0484 0.311875 73.9424C-1.1297 81.5925 2.60591 89.4096 7.87319 95.116C13.1405 100.822 19.8563 104.936 26.0418 109.63C43.1563 122.643 56.3482 140.154 64.1569 160.226C65.7197 164.259 67.0643 168.418 67.5078 172.723C67.8301 175.853 67.6776 179.056 68.4088 182.112C71.3023 194.245 85.9745 198.953 98.3803 199.739C118.361 200.984 138.361 197.632 156.854 189.94C161.012 188.201 165.306 186.226 169.769 186.716C173.339 187.109 176.523 189.046 179.656 190.809C188.881 196.005 198.699 200.061 208.896 202.889C214.545 204.454 220.474 205.643 226.244 204.628C243.57 201.561 252.777 180.474 269.778 175.863C281.54 172.675 293.779 178.245 304.327 184.362C314.876 190.479 325.764 197.524 337.941 197.541C354.186 197.562 367.542 185.224 378.562 173.248C380.873 170.734 383.222 168.105 384.324 164.868C386.559 158.296 382.938 150.913 377.584 146.497C372.23 142.081 365.48 139.89 359.031 137.366C348.1 133.086 337.669 127.62 327.923 121.064C321.616 116.822 315.507 112.023 311.192 105.764C307.481 100.367 305.253 94.111 302.765 88.0465C297.31 74.7665 289.596 61.2709 276.716 55.0395C266.199 49.9487 253.983 50.519 242.309 50.3834C225.107 50.1921 207.468 48.1161 192.218 40.1322C179.337 33.3896 168.757 22.7454 155.686 16.3714C134.894 6.24193 111.126 8.2275 88.7225 8.61001C77.9557 8.79431 65.1583 9.87228 54.8178 6.33234C47.1699 3.7139 43.2333 -1.63773 34.4487 0.51822C22.4344 3.45658 14.4053 15.7907 16.3251 28.0414Z" fill="#6C63FF"/>
<path d="M334.864 123.63C334.32 121.823 334.377 119.887 335.027 118.115C336.066 115.417 338.599 113.469 339.49 110.712C341.146 105.59 336.683 100.794 333.946 96.1521C331.434 91.8449 330.296 86.8699 330.685 81.895C331.111 76.5538 333.291 71.4455 333.457 66.0904C333.606 61.1004 331.995 56.2461 330.404 51.5169C329.091 47.6083 327.753 43.6546 325.532 40.1842C321.332 33.6225 313.871 29.4983 306.199 28.8168C302.578 28.4934 299.036 29.6757 295.477 29.2132C290.536 28.5733 285.864 27.2867 280.826 27.1268C276.04 26.9842 270.749 27.5927 267.488 31.1118C264.996 33.8068 264.199 37.6979 261.919 40.5771C258.682 44.663 253.024 46.0644 249.444 49.8477C247.897 51.5198 246.811 53.5673 246.293 55.7886C245.775 58.0099 245.842 60.3284 246.488 62.5157C246.983 64.1292 247.794 65.6279 248.321 67.231C250.535 73.9284 247.628 81.0917 245.871 87.9212C245.673 88.4792 245.637 89.0821 245.767 89.6599C246.044 90.4944 246.918 90.9326 247.642 91.4264C250.012 93.0468 251.222 95.9817 251.454 98.8505C251.686 101.719 251.024 104.578 250.373 107.38C248.713 114.506 246.637 122.138 241.165 126.878C240.172 124.5 238.997 122.203 237.651 120.007C234.304 114.561 231.826 107.836 231.785 101.399C231.782 101.38 231.782 101.36 231.785 101.34C231.785 100.993 231.802 100.645 231.823 100.297C232.256 92.7025 235.527 85.3758 235.454 77.816C235.454 77.204 235.437 76.5909 235.402 75.9765C234.976 69.5052 231.878 63.5207 228.326 58.103C225.675 54.0588 222.688 50.1537 218.862 47.2084C212.947 42.6914 205.431 40.7301 198.046 39.6939C190.662 38.6576 183.942 37.684 176.499 37.1833C168.494 36.6443 159.685 36.3417 153.358 41.2865C145.107 47.7335 144.649 60.1859 138.36 68.5663C134.617 73.5528 128.657 77.4057 126.685 83.0703C126.152 81.6802 125.707 80.2574 125.354 78.8106C125.334 78.7132 125.313 78.6193 125.292 78.5219C127.67 71.6869 128.223 64.3463 126.896 57.2301C127.053 56.0776 127.133 54.916 127.136 53.7528C127.174 52.487 127.038 51.222 126.73 49.9938C125.84 46.6069 123.383 43.898 121.009 41.3282C120.145 40.3472 119.206 39.4346 118.202 38.5985C111.99 31.0462 103.305 25.9556 93.6976 24.236C84.0904 22.5165 74.1869 24.2799 65.7559 29.2113C57.3248 34.1427 50.9152 41.921 47.6718 51.157C44.4285 60.393 44.5625 70.4852 48.0501 79.6312C47.7452 82.0028 46.8303 84.3082 45.1496 85.9808C44.3838 86.7424 43.3927 87.6952 43.5591 88.6688C43.5075 88.9461 43.5463 89.2327 43.67 89.486C43.8402 89.7895 44.0773 90.0499 44.363 90.2475C46.7873 92.1067 49.8066 93.0098 52.8496 92.786C55.4174 100.359 60.4515 106.844 67.1405 111.195C67.1405 111.427 67.1324 111.652 67.1163 111.87C67.1163 112.256 67.0851 112.638 67.0678 113.028C67.0678 113.115 67.0678 113.201 67.0678 113.288C67.0678 113.257 67.0678 113.222 67.0678 113.188C67.0678 113.153 55.0015 128.971 43.8501 129.559C37.8967 129.872 32.7022 133.902 28.7656 138.51C24.0389 144.039 21.1211 150.395 20.8716 152.155C20.4108 155.382 17.1949 171.065 17.1949 171.065H109.837C108.742 176.712 107.265 183.906 107.265 183.906H257.241C256.894 179.069 256.51 174.598 256.153 170.811H275.007L274.987 170.925H361.966L367.483 162.618C366.114 138.412 351.885 125.104 334.864 123.63ZM118.316 96.5902C120.273 97.6467 122.375 98.4061 124.554 98.8435C125.5 99.0383 126.557 99.16 127.364 98.6279C127.899 98.2223 128.295 97.6596 128.497 97.0179L128.539 97.1223C130.878 103.034 133.044 109.133 133.463 115.483C133.501 116.081 133.526 116.679 133.529 117.28C133.538 120.902 132.794 124.486 131.342 127.803C123.508 123.668 115.952 119.022 108.724 113.893L108.236 113.685C108.236 113.723 108.405 114.158 108.606 114.891C108.655 115.069 108.707 115.264 108.759 115.472C108.263 113.866 107.813 112.224 107.418 110.552C107.373 110.354 107.328 110.155 107.283 109.957C112.002 106.482 115.792 101.89 118.316 96.5902Z" fill="url(#paint0_linear)"/>
<path d="M279.436 28.3578C274.727 28.2152 269.515 28.8168 266.309 32.2802C263.856 34.9299 263.073 38.762 260.827 41.596C257.643 45.6193 252.074 46.9963 248.546 50.7206C247.024 52.3664 245.954 54.3818 245.444 56.5683C244.934 58.7549 245 61.0371 245.635 63.1903C246.124 64.776 246.921 66.2539 247.441 67.8291C249.621 74.4361 246.776 81.4707 245.015 88.1924C244.819 88.7437 244.784 89.3398 244.915 89.9103C245.185 90.7309 246.048 91.1621 246.758 91.6489C249.09 93.245 250.282 96.1312 250.494 98.9514C250.705 101.771 250.071 104.588 249.43 107.346C247.728 114.648 245.58 122.51 239.672 127.111C237.177 129.076 233.843 130.668 233.191 133.798C232.429 137.463 235.915 140.579 239.259 142.237C249.076 147.106 260.474 147.175 271.213 149.345C280.67 151.258 290.102 154.881 299.674 153.643C303.939 153.094 308.018 151.588 312.055 150.096L337.193 140.801C337.903 140.583 338.571 140.246 339.168 139.803C340.682 138.537 340.734 136.131 339.909 134.333C339.085 132.536 337.588 131.159 336.271 129.684C333.401 126.461 331.218 121.909 332.785 117.882C333.824 115.225 336.302 113.309 337.179 110.58C338.807 105.537 334.406 100.815 331.738 96.246C329.27 92.011 328.15 87.1202 328.529 82.2288C328.949 76.9711 331.094 71.9428 331.25 66.6711C331.395 61.7611 329.811 56.9833 328.245 52.3271C326.953 48.4812 325.636 44.59 323.449 41.1718C319.315 34.7143 311.972 30.6563 304.418 29.9817C300.852 29.6652 297.369 30.8267 293.866 30.3746C288.997 29.773 284.395 28.5073 279.436 28.3578Z" fill="#F7D6C8"/>
<path d="M286.467 166.342C286.467 166.342 257.968 148.413 269.05 127.744C271.615 122.966 272.748 118.445 272.98 114.318C273.041 113.23 273.041 112.14 272.98 111.053C272.98 111 272.98 110.948 272.98 110.896C272.943 110.335 272.894 109.783 272.831 109.241C271.511 98.3289 264.525 91.2177 264.525 91.2177C264.525 91.2177 311.795 77.3744 303.88 89.8546C300.207 95.6479 301.306 101.33 303.766 107.21C304.026 107.829 304.303 108.455 304.591 109.077C307.432 115.278 311.376 121.7 312.478 128.665C314.737 142.964 286.467 166.342 286.467 166.342Z" fill="#EFB7B9"/>
<path opacity="0.1" d="M303.88 89.8546C300.207 95.6479 301.306 101.33 303.766 107.21C299.206 110.16 293.972 111.896 288.557 112.254C283.143 112.612 277.727 111.58 272.821 109.255C271.511 98.3289 264.525 91.2177 264.525 91.2177C264.525 91.2177 311.799 77.371 303.88 89.8546Z" fill="black"/>
<path d="M286.464 111.644C304.077 111.644 318.355 97.3159 318.355 79.6417C318.355 61.9674 304.077 47.6396 286.464 47.6396C268.851 47.6396 254.573 61.9674 254.573 79.6417C254.573 97.3159 268.851 111.644 286.464 111.644Z" fill="#EFB7B9"/>
<path opacity="0.1" d="M272.98 111.066C272.98 111.014 272.98 110.962 272.98 110.91L273.018 110.847C272.998 110.924 272.984 110.997 272.98 111.066Z" fill="black"/>
<path opacity="0.1" d="M286.467 166.342C286.467 166.342 257.968 148.413 269.051 127.744C271.615 122.966 272.748 118.445 272.98 114.318C273.628 119.423 277.139 125.769 283.529 134.552C286.301 138.378 287.493 143.726 287.871 149.07L288.505 149.533L291.624 147.641C291.97 141.73 293.162 135.756 295.983 131.52C303.395 120.393 305.156 114.829 304.608 109.063C307.45 115.264 311.393 121.686 312.495 128.651C314.737 142.964 286.467 166.342 286.467 166.342Z" fill="black"/>
<path d="M332.154 123.275C315.174 122.037 304.431 108.81 304.431 108.81C305.336 115.006 303.867 120.553 295.948 132.456C293.145 136.677 291.956 142.641 291.61 148.566L288.491 150.458L287.857 149.995C287.479 144.654 286.291 139.299 283.515 135.477C275.6 124.583 272.079 117.433 272.998 111.758C272.998 111.758 264.289 125.943 247.327 127.08C230.364 128.217 216.114 140.245 214.753 162.26L220.179 169.75H273.708L273.687 169.865H359.281L364.728 161.683C363.366 137.647 349.134 124.513 332.154 123.275Z" fill="#6C63FF"/>
<path opacity="0.05" d="M332.154 123.275C315.174 122.037 304.431 108.81 304.431 108.81C305.336 115.006 303.867 120.553 295.948 132.456C293.145 136.677 291.956 142.641 291.61 148.566L288.491 150.458L287.857 149.995C287.479 144.654 286.291 139.299 283.515 135.477C275.6 124.583 272.079 117.433 272.998 111.758C272.998 111.758 264.289 125.943 247.327 127.08C230.364 128.217 216.114 140.245 214.753 162.26L220.179 169.75H273.708L273.687 169.865H359.281L364.728 161.683C363.366 137.647 349.134 124.513 332.154 123.275Z" fill="black"/>
<path opacity="0.1" d="M308.025 64.1744C306.639 67.617 304.178 70.5241 301.489 73.0764C297.774 76.6059 293.103 79.7147 287.995 79.4747C290.78 76.8716 292.796 73.5483 293.821 69.8703C290.598 71.755 288.162 74.7386 285.084 76.8633C282.007 78.9879 277.658 80.0833 274.65 77.8647C280.114 75.1086 284.652 70.8059 287.704 65.4889C280.399 67.391 276.65 75.6462 270.069 79.353C266.985 81.0917 263.378 81.7455 259.843 81.669C257.331 81.6168 254.531 81.0291 253.131 78.9358C252.313 77.7187 252.122 76.1887 252.091 74.7177C251.939 68.0482 254.645 61.5038 258.814 56.3121C262.983 51.1205 268.517 47.1737 274.436 44.1101C276.542 43.0182 278.739 42.0237 281.086 41.676C284.003 41.2518 286.977 41.8742 289.839 42.5349C293.561 43.3903 297.303 44.3292 300.73 46.0122C308.046 49.6461 311.241 56.2322 308.025 64.1744Z" fill="black"/>
<path d="M308.025 63.7189C306.639 67.1615 304.178 70.0685 301.489 72.6209C297.774 76.1504 293.103 79.2592 287.995 79.0192C290.78 76.416 292.796 73.0928 293.821 69.4148C290.598 71.2995 288.162 74.2831 285.084 76.4077C282.007 78.5324 277.658 79.6278 274.65 77.4092C280.114 74.653 284.652 70.3504 287.704 65.0333C280.399 66.9354 276.65 75.1907 270.069 78.8975C266.985 80.6362 263.378 81.2899 259.843 81.2134C257.331 81.1613 254.531 80.5736 253.131 78.4802C252.313 77.2632 252.122 75.7331 252.091 74.2622C251.939 67.5927 254.645 61.0483 258.814 55.8566C262.983 50.6649 268.517 46.7181 274.436 43.6546C276.542 42.5627 278.739 41.5682 281.086 41.2205C284.003 40.7962 286.977 41.4187 289.839 42.0794C293.561 42.9348 297.303 43.8737 300.73 45.5567C308.046 49.1836 311.241 55.7766 308.025 63.7189Z" fill="#F7D6C8"/>
<path d="M88.1299 106.108C110.489 106.108 128.615 87.9189 128.615 65.4819C128.615 43.0449 110.489 24.8561 88.1299 24.8561C65.7705 24.8561 47.6447 43.0449 47.6447 65.4819C47.6447 87.9189 65.7705 106.108 88.1299 106.108Z" fill="#C3705A"/>
<path d="M124.432 143.67C124.432 143.67 87.3536 153.201 86.4353 154.102C85.517 155.003 55.2232 156.599 64.0424 137.988C67.2825 131.155 68.6305 121.874 69.0394 112.864C69.0567 112.482 69.0741 112.103 69.0879 111.724C69.6458 96.6215 67.6637 82.6078 67.6637 82.6078C67.6637 82.6078 110.634 65.5688 107.47 91.4612C106.68 97.9012 107.335 104.373 108.769 110.458C109.247 112.489 109.809 114.474 110.433 116.401C115.45 131.924 124.432 143.67 124.432 143.67Z" fill="#ECB4B6"/>
<path opacity="0.1" d="M108.766 110.465C103.067 114.705 96.2135 117.098 89.1224 117.324C82.0313 117.551 75.0405 115.599 69.0845 111.731C69.6424 96.6285 67.6603 82.6148 67.6603 82.6148C67.6603 82.6148 110.63 65.5758 107.466 91.4681C106.68 97.9116 107.335 104.383 108.766 110.465Z" fill="black"/>
<path d="M88.0156 116.658C107.252 116.658 122.845 101.01 122.845 81.7072C122.845 62.4044 107.252 46.7564 88.0156 46.7564C68.7795 46.7564 53.1857 62.4044 53.1857 81.7072C53.1857 101.01 68.7795 116.658 88.0156 116.658Z" fill="#ECB4B6"/>
<path opacity="0.1" d="M124.432 143.67C124.432 143.67 87.3536 153.201 86.4353 154.102C85.517 155.003 55.2232 156.599 64.0424 137.988C67.2825 131.155 68.6305 121.874 69.0394 112.864C69.3859 117.573 72.0681 128.975 72.4112 132.769C72.433 132.99 72.4771 133.209 72.5428 133.422C73.0453 135.109 74.8369 137.053 76.9958 138.896L77.124 139.003C79.8094 141.264 83.1417 142.608 86.639 142.843C90.1362 143.077 93.6171 142.189 96.5783 140.307C99.6604 138.359 102.619 136.22 105.436 133.902C109.469 130.56 110.727 126.057 110.883 122.079C110.948 120.17 110.797 118.259 110.433 116.383C115.45 131.924 124.432 143.67 124.432 143.67Z" fill="black"/>
<path d="M171.252 170.001H19.9291C19.9291 170.001 23.0964 154.568 23.5469 151.39C23.7929 149.651 26.6656 143.392 31.3196 137.957C35.1938 133.436 40.3051 129.455 46.165 129.145C57.1327 128.568 69.0083 113.031 69.0083 113.031C69.2717 117.552 72.0509 129.357 72.4009 133.231C72.4227 133.453 72.4668 133.672 72.5326 133.885C73.035 135.571 74.8266 137.515 76.9855 139.358L77.1137 139.466C79.7985 141.727 83.1307 143.073 86.6281 143.308C90.1254 143.543 93.6066 142.655 96.568 140.773C99.6495 138.824 102.608 136.685 105.425 134.368C109.459 131.026 110.717 126.523 110.873 122.545C110.952 119.905 110.633 117.269 109.927 114.725C109.729 114.001 109.58 113.577 109.559 113.539L110.041 113.744C110.041 113.744 130.532 128.697 149.303 134.81C151.503 135.528 153.579 136.584 155.458 137.939C156.979 139.043 158.38 140.306 159.637 141.705C162.178 144.589 164.28 147.833 165.874 151.334C170.227 160.591 171.252 170.001 171.252 170.001Z" fill="#6C63FF"/>
<path opacity="0.05" d="M171.252 170.001H19.9291C19.9291 170.001 23.0964 154.568 23.5469 151.39C23.7929 149.651 26.6656 143.392 31.3196 137.957C35.1938 133.436 40.3051 129.455 46.165 129.145C57.1327 128.568 69.0083 113.031 69.0083 113.031C69.2717 117.552 72.0509 129.357 72.4009 133.231C72.4227 133.453 72.4668 133.672 72.5326 133.885C73.035 135.571 74.8266 137.515 76.9855 139.358L77.1137 139.466C79.7985 141.727 83.1307 143.073 86.6281 143.308C90.1254 143.543 93.6066 142.655 96.568 140.773C99.6495 138.824 102.608 136.685 105.425 134.368C109.459 131.026 110.717 126.523 110.873 122.545C110.952 119.905 110.633 117.269 109.927 114.725C109.729 114.001 109.58 113.577 109.559 113.539L110.041 113.744C110.041 113.744 130.532 128.697 149.303 134.81C151.503 135.528 153.579 136.584 155.458 137.939C156.979 139.043 158.38 140.306 159.637 141.705C162.178 144.589 164.28 147.833 165.874 151.334C170.227 160.591 171.252 170.001 171.252 170.001Z" fill="black"/>
<path opacity="0.1" d="M104.76 69.9712C105.661 73.4485 106.839 77.3118 109.934 79.1235C110.348 79.323 110.73 79.5844 111.067 79.899C111.829 80.7301 111.597 82.0271 111.483 83.1538C111.088 87.0206 112.744 90.9395 115.461 93.711C118.178 96.4824 121.854 98.1759 125.649 98.9548C126.578 99.1461 127.621 99.2678 128.421 98.7427C128.962 98.3302 129.36 97.7571 129.558 97.1049C130.615 94.2848 130.168 91.1169 129.284 88.2377C128.4 85.3584 127.097 82.6113 126.429 79.673C124.838 72.7009 126.945 65.4958 127.894 58.4055C128.21 56.0479 128.393 53.6172 127.787 51.3187C126.91 47.9874 124.491 45.3168 122.156 42.7887C120.898 41.4291 119.612 40.0451 117.997 39.1549C113.236 36.5434 107.106 38.8628 102.022 36.9607C99.9882 36.1992 98.259 34.8082 96.3219 33.8311C92.2086 31.7447 87.3329 31.6299 82.8245 32.5793C78.3162 33.5286 74.0919 35.4794 69.9093 37.4128L66.7108 38.8663C62.2059 40.9527 57.3787 43.3103 54.953 47.6744C52.3713 52.3201 53.0887 58.2664 50.507 62.9121C49.7238 64.3031 48.6323 65.6384 48.4278 67.238C48.2892 68.3924 48.6427 69.5469 48.9719 70.6631C49.7758 73.379 50.4758 76.1713 50.4134 79.0088C50.3511 81.8463 49.4501 84.7534 47.4471 86.7494C46.6016 87.5909 45.4719 88.6688 45.9917 89.7433C46.1622 90.0437 46.3994 90.3008 46.6848 90.4944C48.3297 91.748 50.2635 92.5646 52.3067 92.8686C54.35 93.1725 56.4366 92.9539 58.3733 92.2331C59.8911 91.6524 61.3257 90.7205 62.1851 89.3469C62.7564 88.3407 63.1702 87.2523 63.4118 86.12C64.5069 82.0271 65.6088 77.8647 65.5222 73.6258C65.4737 71.1917 65.0301 68.7367 65.3836 66.3234C65.7371 63.9101 67.1405 61.4238 69.4796 60.7597C71.2123 60.2624 73.0662 60.864 74.8751 60.8466C77.481 60.8257 80.676 57.9256 83.0914 58.7776C85.1705 59.5148 86.8166 63.5068 88.5354 65.0368C92.8947 68.9419 98.9798 70.9831 104.76 69.9712Z" fill="black"/>
<path d="M104.76 69.5156C105.661 72.993 106.839 76.8563 109.934 78.668C110.342 78.8633 110.72 79.1188 111.053 79.4261C111.815 80.2571 111.583 81.5542 111.469 82.6809C111.074 86.5477 112.73 90.4666 115.447 93.2381C118.164 96.0095 121.84 97.703 125.635 98.4819C126.564 98.6732 127.607 98.7949 128.407 98.2698C128.948 97.8573 129.346 97.2842 129.544 96.632C130.601 93.8118 130.154 90.644 129.27 87.7647C128.386 84.8855 127.084 82.1384 126.415 79.2C124.824 72.228 126.931 65.0229 127.881 57.9326C128.196 55.5749 128.38 53.1443 127.773 50.8458C126.896 47.5145 124.478 44.8439 122.142 42.3158C120.884 40.9562 119.598 39.5722 117.984 38.682C113.222 36.0705 107.092 38.3899 102.008 36.4878C99.9743 35.7263 98.2452 34.3353 96.3081 33.3582C92.1947 31.2718 87.319 31.157 82.8106 32.1063C78.3023 33.0557 74.0781 35.0064 69.8954 36.9398L66.7385 38.4003C62.2336 40.4867 57.4064 42.8444 54.9807 47.2085C52.3991 51.8542 53.1164 57.8004 50.5347 62.4462C49.7516 63.8371 48.66 65.1724 48.4555 66.772C48.3169 67.9265 48.6704 69.081 48.9996 70.1972C49.8035 72.913 50.5035 75.7053 50.4412 78.5428C50.3788 81.3803 49.4778 84.2874 47.4748 86.2834C46.6293 87.1249 45.4996 88.2029 46.0194 89.2774C46.1899 89.5778 46.4271 89.8348 46.7125 90.0285C48.3575 91.2821 50.2912 92.0987 52.3344 92.4026C54.3777 92.7066 56.4643 92.488 58.401 91.7672C59.9188 91.1864 61.3534 90.2545 62.2128 88.881C62.7841 87.8747 63.1979 86.7864 63.4395 85.654C64.5346 81.5611 65.6366 77.3988 65.5499 73.1599C65.5014 70.7257 65.0578 68.2707 65.4113 65.8575C65.7648 63.4442 67.1682 60.9579 69.5073 60.2937C71.24 59.7964 73.0939 60.398 74.9028 60.3806C77.5087 60.3598 80.7037 57.4597 83.1191 58.3116C85.1983 59.0488 86.8443 63.0408 88.5631 64.5708C92.8947 68.4898 98.9798 70.531 104.76 69.5156Z" fill="#C3705A"/>
<path d="M220.786 84.3604H141.395V152.676H220.786V84.3604Z" fill="#463A3E"/>
<path opacity="0.05" d="M220.786 84.3604H141.395V152.676H220.786V84.3604Z" fill="black"/>
<path d="M209.402 182.637H141.482C142.359 177.675 144.923 172.236 149.92 166.374C153.866 161.765 157.093 156.583 159.491 151.004C160.136 149.513 160.713 148.019 161.224 146.521C162.725 142.075 163.746 137.479 164.27 132.814C164.27 132.682 164.301 132.549 164.315 132.417C164.665 129.194 164.806 125.951 164.738 122.709C164.738 122.476 164.738 122.25 164.738 122.013C164.495 114.058 163.184 106.172 160.839 98.5689L160.753 98.2976C160.014 95.9643 159.474 94.6534 159.474 94.6534C159.474 94.6534 160.822 93.9196 163.047 92.8382L163.234 92.7478C171.415 88.8045 190.783 80.5771 199.321 86.4399L199.46 86.5338C202.447 88.6688 204.055 92.5878 203.3 99.1148C203.3 99.1391 203.3 99.167 203.3 99.1913C203.3 99.313 203.272 99.4312 203.262 99.539C202.804 104.038 202.588 108.558 202.614 113.08C202.614 113.306 202.614 113.532 202.614 113.775C202.614 114.835 202.625 115.908 202.648 116.995C202.648 117.141 202.648 117.287 202.648 117.433C202.718 120.946 202.873 124.572 203.092 128.251C203.393 133.353 203.823 138.548 204.318 143.646C204.53 145.826 204.759 147.992 205.012 150.124C205.039 150.374 205.067 150.632 205.095 150.879C205.386 153.476 205.687 156.022 205.996 158.49L206.016 158.65C207.195 168.457 208.498 177.018 209.402 182.637Z" fill="#C17174"/>
<path opacity="0.1" d="M203.272 99.1287C203.272 99.153 203.272 99.1809 203.272 99.2052C202.784 103.825 202.552 108.469 202.579 113.115C202.579 113.341 202.579 113.567 202.579 113.81C198.018 119.122 191.898 122.847 185.096 124.451C178.295 126.056 171.162 125.457 164.72 122.74C164.72 122.507 164.72 122.281 164.72 122.044C164.476 113.994 163.135 106.015 160.735 98.3289C159.997 95.9956 159.457 94.6847 159.457 94.6847C159.457 94.6847 160.805 93.9509 163.029 92.8695C171.131 88.9401 190.901 80.4554 199.432 86.5477C202.416 88.6828 204.024 92.6017 203.272 99.1287Z" fill="black"/>
<path d="M177.545 124.625C195.788 124.625 210.577 109.785 210.577 91.4785C210.577 73.1725 195.788 58.3325 177.545 58.3325C159.303 58.3325 144.514 73.1725 144.514 91.4785C144.514 109.785 159.303 124.625 177.545 124.625Z" fill="#C17174"/>
<path opacity="0.1" d="M179.295 182.411H108.828C108.828 182.411 111.996 166.979 112.446 163.8C112.692 162.062 115.565 155.802 120.219 150.367C126.196 145.582 133.6 142.946 141.246 142.881C154.723 142.679 158.646 147.335 159.709 150.778C160.081 151.932 160.176 153.158 159.987 154.356L162.537 158.063L179.295 182.411Z" fill="black"/>
<path d="M179.07 182.637H108.603C108.603 182.637 111.77 167.205 112.221 164.026C112.467 162.288 115.34 156.029 119.994 150.593C125.971 145.808 133.375 143.172 141.021 143.107C154.498 142.905 158.42 147.561 159.484 151.004C159.856 152.158 159.951 153.384 159.761 154.582L162.312 158.289L179.07 182.637Z" fill="#6C63FF"/>
<path opacity="0.1" d="M255.993 182.411H182.161C185.682 174.893 194.91 154.85 195.423 150.214C195.621 148.42 197.526 146.737 200.049 145.308C200.846 144.85 201.666 144.435 202.506 144.063L202.659 143.993C203.121 143.789 203.588 143.6 204.062 143.427C210.448 141.081 217.466 141.136 223.814 143.583C229.875 145.896 237.676 149.011 243.747 151.929L243.795 151.953C245.355 152.704 246.807 153.438 248.085 154.144C250.643 155.552 252.511 156.839 253.228 157.868C253.557 158.341 253.921 160.473 254.32 163.78C254.85 168.251 255.428 174.886 255.993 182.411Z" fill="black"/>
<path d="M256.218 182.637H182.386C185.907 175.119 195.135 155.076 195.648 150.44C195.846 148.646 197.752 146.963 200.274 145.534C201.071 145.076 201.891 144.661 202.731 144.289L202.884 144.219C203.346 144.015 203.814 143.827 204.287 143.653C210.674 141.307 217.691 141.362 224.04 143.809C230.1 146.122 237.901 149.237 243.972 152.155L244.021 152.179C245.58 152.93 247.032 153.664 248.311 154.37C250.868 155.778 252.736 157.065 253.453 158.094C253.782 158.567 254.146 160.699 254.545 164.006C255.078 168.477 255.654 175.116 256.218 182.637Z" fill="#6C63FF"/>
<path opacity="0.1" d="M244.336 146.282C244.336 147.35 244.307 148.42 244.249 149.491C244.217 150.013 244.178 150.534 244.131 151.056C244.1 151.431 244.062 151.804 244.024 152.176L243.975 152.607C243.411 157.663 242.368 162.691 242.243 167.772C242.243 168.011 242.243 168.251 242.243 168.491C242.219 173.262 242.988 177.96 244.031 182.637H201.512C201.442 181.771 201.408 180.898 201.418 180.04C201.418 179.264 201.466 178.489 201.546 177.71C202.201 171.308 205.462 165.316 205.954 158.956L205.975 158.664C206.006 158.188 206.023 157.708 206.016 157.228C206.016 157.186 206.016 157.145 206.016 157.1C205.963 154.997 205.64 152.909 205.057 150.889C205.029 150.788 205.001 150.687 204.973 150.586C204.379 148.582 203.685 146.609 202.894 144.675L202.742 144.289C201.588 141.396 200.375 138.527 199.554 135.651C198.901 133.51 198.563 131.284 198.552 129.044C198.552 128.644 198.576 128.245 198.608 127.845C198.635 127.518 198.673 127.191 198.722 126.861C198.798 126.345 198.899 125.833 199.027 125.327C199.72 122.587 201.2 120.017 202.617 117.472C204.194 114.638 205.698 111.835 205.968 108.855C206.002 108.478 206.015 108.1 206.006 107.721C205.995 107.234 205.949 106.748 205.867 106.268C205.504 104.153 204.419 102.251 203.528 100.301C203.438 100.102 203.348 99.9042 203.262 99.7025C203.262 99.6712 203.234 99.6399 203.223 99.6086C201.491 95.5922 200.486 91.3082 199.429 87.0449C199.384 86.8606 199.339 86.6763 199.29 86.4955C199.03 85.4523 198.764 84.4091 198.479 83.3659C196.927 77.677 194.716 71.9289 190.509 67.8222C186.302 63.7154 179.593 61.636 174.326 64.2509C169.769 66.5286 167.302 71.6264 166.19 76.6059C165.077 81.5855 164.987 86.7841 163.542 91.6802C163.438 92.0372 163.323 92.3931 163.196 92.7478C163.133 92.9286 163.071 93.0955 163.008 93.2937C162.388 95.0672 161.622 96.8232 160.798 98.5689L160.711 98.7532C158.077 104.376 155.017 109.902 154.92 115.552V115.625C154.92 115.778 154.92 115.928 154.92 116.081C154.938 117.424 155.141 118.758 155.523 120.045C156.216 122.361 157.471 124.381 158.933 126.304C159.222 126.682 159.518 127.056 159.82 127.427C161.276 129.222 162.856 130.96 164.239 132.81L164.284 132.869C165.335 134.236 166.222 135.722 166.928 137.296C167.764 139.268 168.2 141.388 168.212 143.531C168.224 145.674 167.811 147.798 166.997 149.78C166.605 150.695 166.154 151.585 165.649 152.443C164.758 153.987 163.778 155.49 163.005 157.096C162.745 157.635 162.513 158.184 162.312 158.741C160.579 163.22 160.205 168.175 158.791 172.796C157.696 176.344 155.992 179.674 153.756 182.634H108.707C109.23 180.064 111.826 167.333 112.235 164.475C112.481 162.736 115.353 156.477 120.007 151.042C119.616 151.351 119.238 151.664 118.874 151.977C115.939 154.487 113.396 157.425 111.33 160.692C111.431 160.379 111.535 160.062 111.639 159.749C112.273 157.851 112.959 155.969 113.655 154.112C115.672 148.764 117.918 143.308 121.937 139.254C124.207 136.966 126.969 135.203 129.131 132.814C132.943 128.61 134.52 122.785 134.475 117.075C134.475 116.484 134.451 115.896 134.413 115.309C134 109.05 131.869 103.058 129.561 97.2266C128.321 94.097 127.004 90.8074 127.063 87.49C127.066 87.0247 127.1 86.5601 127.163 86.0991C128.116 79.2244 135.047 75.1072 139.209 69.5608C145.398 61.3091 145.848 49.0445 153.967 42.7088C160.205 37.8405 168.868 38.1395 176.745 38.6681C184.071 39.1619 190.682 40.1182 197.953 41.1405C205.223 42.1628 212.601 44.0823 218.433 48.5785C222.199 51.4786 225.138 55.3211 227.747 59.3027C231.24 64.6369 234.293 70.5275 234.713 76.8946C234.744 77.3501 234.761 77.8021 234.761 78.2507C234.834 85.6922 231.615 92.9043 231.188 100.377C231.171 100.725 231.157 101.073 231.154 101.42C231.152 101.439 231.152 101.457 231.154 101.476C231.078 107.954 233.555 114.756 236.927 120.254C241.717 128.089 244.28 137.09 244.336 146.282Z" fill="black"/>
<path d="M244.336 146.282C244.336 147.2 244.301 148.121 244.249 149.036C244.217 149.557 244.178 150.079 244.132 150.6C244.085 151.122 244.033 151.639 243.976 152.151C243.411 157.207 242.368 162.236 242.243 167.316C242.243 167.705 242.243 168.098 242.243 168.488C242.267 173.255 243.071 177.957 244.132 182.634H201.55C201.47 181.768 201.421 180.895 201.415 180.036C201.405 179.107 201.448 178.178 201.543 177.254C202.198 170.852 205.459 164.861 205.951 158.501C205.985 158.035 206.01 157.569 206.013 157.11C206.013 157.002 206.013 156.891 206.013 156.783C205.969 154.532 205.62 152.298 204.977 150.141C204.383 148.137 203.689 146.164 202.898 144.23C201.699 141.208 200.413 138.207 199.554 135.189C198.948 133.187 198.611 131.114 198.552 129.023C198.543 128.471 198.561 127.919 198.608 127.368C198.635 127.041 198.674 126.714 198.722 126.384C198.798 125.868 198.9 125.356 199.027 124.851C199.72 122.11 201.2 119.541 202.617 116.995C204.197 114.158 205.708 111.348 205.975 108.365C205.996 108.139 206.006 107.909 206.013 107.669C206.029 107.03 205.983 106.39 205.874 105.76C205.511 103.646 204.426 101.744 203.535 99.7929C203.445 99.5947 203.355 99.3965 203.269 99.1948C201.512 95.1541 200.496 90.8491 199.436 86.5372C199.131 85.3063 198.819 84.0753 198.49 82.8547C196.937 77.1658 194.727 71.4177 190.52 67.311C186.313 63.2042 179.614 61.1665 174.35 63.7954C169.794 66.0731 167.326 71.1708 166.214 76.1504C165.102 81.13 165.011 86.3286 163.566 91.2247C163.407 91.7637 163.22 92.3027 163.043 92.8382C162.399 94.6707 161.595 96.4894 160.749 98.2976C158.043 104.067 154.893 109.742 154.959 115.552V115.625C154.977 116.968 155.179 118.302 155.562 119.589C156.255 121.905 157.509 123.926 158.971 125.849C159.26 126.226 159.556 126.601 159.859 126.972C161.331 128.787 162.929 130.543 164.322 132.414C165.373 133.78 166.261 135.266 166.966 136.841C167.802 138.813 168.238 140.932 168.25 143.075C168.262 145.219 167.849 147.343 167.035 149.324C166.643 150.24 166.192 151.13 165.687 151.988C164.797 153.532 163.816 155.034 163.043 156.641C162.783 157.179 162.551 157.729 162.35 158.285C160.617 162.764 160.243 167.719 158.829 172.341C157.676 176.071 155.852 179.559 153.448 182.63H108.603C108.603 182.63 111.77 167.198 112.221 164.019C112.446 162.43 114.875 157.065 118.86 151.977C119.207 151.511 119.602 151.045 119.994 150.586C116.735 153.171 113.911 156.263 111.628 159.746L111.32 160.233C112.041 158.011 112.834 155.816 113.649 153.653C115.665 148.305 117.911 142.849 121.931 138.795C124.2 136.507 126.962 134.744 129.125 132.355C132.826 128.262 134.427 122.618 134.468 117.054C134.468 116.31 134.468 115.57 134.406 114.832C133.993 108.573 131.862 102.582 129.554 96.7502C128.373 93.7527 127.129 90.6301 127.056 87.4518C127.04 86.8392 127.073 86.2263 127.156 85.6192C128.113 78.7828 135.043 74.683 139.205 69.1192C145.394 60.8675 145.845 48.6029 153.964 42.2672C160.202 37.3989 168.865 37.6979 176.742 38.2265C184.067 38.7203 190.679 39.6765 197.949 40.6989C205.219 41.7212 212.608 43.6372 218.433 48.1195C222.2 51.037 225.138 54.8621 227.748 58.8471C231.241 64.1814 234.293 70.072 234.713 76.439C234.754 77.0441 234.771 77.648 234.761 78.2507C234.702 85.5288 231.604 92.6017 231.189 99.925C231.161 100.419 231.147 100.909 231.154 101.406C231.152 101.425 231.152 101.444 231.154 101.462C231.195 107.805 233.635 114.419 236.927 119.777C241.801 127.75 244.367 136.928 244.336 146.282Z" fill="#463A3E"/>
</g>
<defs>
<linearGradient id="paint0_linear" x1="192.332" y1="183.899" x2="192.332" y2="23.5938" gradientUnits="userSpaceOnUse">
<stop stop-color="#808080" stop-opacity="0.25"/>
<stop offset="0.54" stop-color="#808080" stop-opacity="0.12"/>
<stop offset="1" stop-color="#808080" stop-opacity="0.1"/>
</linearGradient>
<clipPath id="clip0">
<rect width="385" height="205" fill="white"/>
</clipPath>
</defs>
</svg>
